<svg
  version="1.1"
  xmlns="http://www.w3.org/2000/svg"
  viewBox="0 0 975 89"
  width="975"
  height="89"
  preserveAspectRatio="none"
>
  <!-- svg-source:excalidraw — navbar bar -->
  <g
    stroke-linecap="round"
    transform="translate(10 10) rotate(0 477.64005259025123 34.4025808196501)"
  >
    <path
      d="M17.2 0 C251.54 5.61, 487.69 5.41, 938.08 0 C947.59 -3.16, 957.43 4.21, 955.28 17.2 C954.42 27.61, 958.21 40.87, 955.28 51.6 C958.47 65.49, 946.62 68.24, 938.08 68.81 C596.87 62.79, 256.69 62.62, 17.2 68.81 C3.15 66.06, -1.52 61.37, 0 51.6 C2.35 44.99, 0.07 36.93, 0 17.2 C2.66 8.98, 5.58 2.97, 17.2 0"
      stroke="none" stroke-width="0" fill="#000000"
    />
    <path
      d="M17.2 0 C355.97 -2.92, 694.85 -2.66, 938.08 0 M17.2 0 C339.13 2.58, 660.93 2.64, 938.08 0 M938.08 0 C950.55 -0.64, 954.45 7.42, 955.28 17.2 M938.08 0 C947.76 -1.81, 955.75 6.7, 955.28 17.2 M955.28 17.2 C954.67 26.64, 956.25 36.52, 955.28 51.6 M955.28 17.2 C954.64 30.12, 955.58 44.12, 955.28 51.6 M955.28 51.6 C955.44 64.66, 948 66.84, 938.08 68.81 M955.28 51.6 C953.11 62.48, 948.64 67.21, 938.08 68.81 M938.08 68.81 C745.45 69.61, 551.88 70.06, 17.2 68.81 M938.08 68.81 C667.05 69.38, 395.58 69.44, 17.2 68.81 M17.2 68.81 C6.42 67.75, -0.12 62.06, 0 51.6 M17.2 68.81 C3.75 68.42, -0.41 64.14, 0 51.6 M0 51.6 C1.58 36.73, -0.12 25.29, 0 17.2 M0 51.6 C-0.77 42.83, -0.85 32.97, 0 17.2 M0 17.2 C-1.71 7.08, 5.67 -0.11, 17.2 0 M0 17.2 C-0.86 7.69, 4.5 2.1, 17.2 0"
      stroke="#000000" stroke-width="2" fill="none"
    />
  </g>
</svg>
